<?xml version="1.0" encoding="UTF-8"?>
<svg id="Layer_2" data-name="Layer 2" xmlns="http://www.w3.org/2000/svg" viewBox="0 0 397.87 119.58">
  <defs>
    <style>
      .cls-1 {
        fill: #f2f2f2;
      }
    </style>
  </defs>
  <g id="Layer_1" data-name="Layer 1">
    <g>
      <path class="cls-1" d="M0,52.64c0,.52-.01,1.06,0,1.59.13,16.35,10.85,31.43,26.07,37.29,2.74,1.05,5.59,1.79,8.49,2.24h0c0,8.17,6.62,14.79,14.79,14.79h28.68c.24,0,.5,0,.74-.01,4.69-.13,9.12-1.57,12.63-4.2,4.97-3.73,7.71-9.44,7.71-16.08v-10.13s10.95-.91,10.95-.91c2-.16,3.79-1.24,4.9-2.91,1.09-1.71,1.37-3.76.7-5.67l-11.19-32.71C96.78,14.15,76.12-.29,53.06,0c-13.94.16-27.13,5.72-37.13,15.65C5.94,25.57.3,38.69,0,52.64ZM42.53,65.08c0-.05,0-.08-.01-.13-.01-.36-.05-.71-.07-1.09-.01-.32-.03-.64-.04-.97-.07-1.41-.09-2.83-.11-4.24-.01-1.64,0-3.28,0-4.9,0-6.3,5.14-11.44,11.44-11.44,6.31,0,11.44,5.14,11.44,11.44,0,6.31-5.13,11.44-11.44,11.44h-11.2s-.01-.08-.01-.11ZM34.57,54.27v10.52c-2.1-.55-4.02-1.65-5.59-3.24-.05-.04-.11-.09-.16-.15-2.31-2.42-3.52-5.57-3.37-8.88v-.38c.79-14.33,12.2-25.82,26.53-26.69.56-.01,1.16-.04,1.72-.04,7.47,0,14.67,2.93,19.99,8.21,5.71,5.65,8.76,13.53,8.35,21.61-.5,9.89-6.25,17.37-13.88,22.62-.16.11-.44.31-.85.55-.23.16-.47.31-.7.43-2.74,1.68-8.6,4.85-15.93,6.57l-8.14,1.09v-13.66h11.2c10.52,0,19.09-8.57,19.09-19.09,0-10.53-8.57-19.09-19.09-19.09-5.27,0-10.03,2.14-13.5,5.59-2.59,2.58-4.41,5.92-5.17,9.5-.31,1.46-.46,2.98-.51,4.53ZM7.65,52.8C8.15,28.2,28.56,7.94,53.16,7.65c19.84-.26,37.51,12.12,44.08,30.77l10.71,31.28-9.63.83c-3.84.32-6.85,3.6-6.85,7.45v10.26c0,4.23-1.63,7.68-4.67,9.98-2.26,1.71-5.16,2.61-8.3,2.67-.24.01-.48.01-.74,0h-28.54c-3.68,0-6.66-2.98-6.66-6.66h0s0,0,.02-.02c1.87.03,3.81-.14,5.65-.41,1.6-.23,3.12-.54,4.45-.85.39-.09.77-.19,1.11-.27.11-.03.2-.05.3-.08.23-.05.46-.12.67-.17.42-.11.81-.21,1.14-.31.35-.11.64-.19.87-.26.13-.04.26-.08.35-.12.17-.05.28-.08.35-.11.04-.01.05-.01.05-.01,3.88-1.24,7.95-3.01,11.9-5.53.05-.04.13-.08.2-.13,10.75-6.41,19.36-16.4,20.05-30.36.51-10.25-3.34-20.24-10.61-27.43-7.25-7.19-17.31-10.96-27.55-10.36-18.2,1.13-32.68,15.69-33.67,33.92l-.03.44c-.23,5.43,1.72,10.57,5.49,14.49,1.89,1.97,4.1,3.49,6.53,4.55,1.5.64,3.1,1.1,4.74,1.36v13.43c-1.71-.3-3.43-.74-5.14-1.33-3.34-1.26-6.51-3.1-9.4-5.43-7.78-6.29-12.29-15.43-12.37-25.1-.01-.46,0-.93,0-1.36Z"/>
      <path class="cls-1" d="M163.99.76h6.63v50.97h-6.63v-23.88h-26.43v23.88h-6.63V.76h6.63v21.11h26.43V.76Z"/>
      <path class="cls-1" d="M207.25,15.03v36.7h-6.19v-6.92c-1.31,2.28-3.06,4.1-5.24,5.46-2.18,1.36-4.64,2.04-7.35,2.04-3.83,0-6.98-1.19-9.43-3.57-2.45-2.38-3.68-5.51-3.68-9.39V15.03h6.19v23.15c0,2.52.75,4.58,2.26,6.15,1.5,1.58,3.52,2.37,6.04,2.37,3.45,0,6.18-1.4,8.19-4.19,2.01-2.79,3.02-6.59,3.02-11.39V15.03h6.19Z"/>
      <path class="cls-1" d="M212.5,51.72V15.03h6.19v6.92c2.09-5,5.78-7.5,11.07-7.5,3.01,0,5.59.68,7.75,2.04,2.16,1.36,3.55,3.25,4.19,5.68,1.02-2.28,2.58-4.14,4.7-5.57,2.11-1.43,4.5-2.15,7.17-2.15,3.93,0,7.05,1.14,9.36,3.42,2.3,2.28,3.46,5.36,3.46,9.25v24.61h-6.19v-23.37c0-2.57-.7-4.62-2.11-6.15-1.41-1.53-3.38-2.29-5.9-2.29-3.06,0-5.44,1.24-7.14,3.71s-2.55,5.7-2.55,9.68v18.42h-6.19v-23.37c0-2.57-.69-4.62-2.08-6.15-1.38-1.53-3.34-2.29-5.86-2.29-3.06,0-5.44,1.24-7.14,3.71s-2.55,5.7-2.55,9.68v18.42h-6.19Z"/>
      <path class="cls-1" d="M285.3,14.44c4.51,0,8.15,1.24,10.92,3.71,2.77,2.47,4.15,5.82,4.15,10.05v23.52h-6.12v-6.26c-1.07,2.09-2.71,3.75-4.91,4.99-2.21,1.24-4.65,1.86-7.32,1.86-3.64,0-6.61-1.01-8.92-3.02-2.31-2.01-3.46-4.62-3.46-7.83,0-6.89,5.83-10.92,17.47-12.09l7.13-.8v-.73c0-2.52-.81-4.53-2.44-6.01-1.63-1.48-3.8-2.22-6.52-2.22-2.52,0-4.61.7-6.26,2.11-1.65,1.41-2.6,3.35-2.84,5.82l-5.75-1.09c.53-3.64,2.17-6.55,4.92-8.74,2.74-2.18,6.05-3.28,9.94-3.28ZM282.97,47.21c3.54,0,6.31-1.09,8.3-3.28,1.99-2.18,2.98-5.12,2.98-8.81v-1.75l-7.13.8c-7.52.83-11.29,3.23-11.29,7.21,0,1.7.67,3.09,2,4.19,1.33,1.09,3.04,1.64,5.13,1.64Z"/>
      <path class="cls-1" d="M305.54,51.72V15.03h6.19v6.92c1.31-2.28,3.06-4.1,5.24-5.46,2.18-1.36,4.63-2.04,7.35-2.04,3.83,0,6.98,1.19,9.43,3.57,2.45,2.38,3.68,5.51,3.68,9.39v24.32h-6.19v-23.15c0-2.52-.75-4.57-2.26-6.15-1.51-1.58-3.52-2.37-6.04-2.37-3.45,0-6.18,1.4-8.19,4.19-2.01,2.79-3.02,6.59-3.02,11.39v16.09h-6.19Z"/>
      <path class="cls-1" d="M342.73,51.72V.76h6.62v50.97h-6.62Z"/>
      <path class="cls-1" d="M355.1,51.72V15.03h6.19v6.92c1.31-2.28,3.06-4.1,5.24-5.46,2.18-1.36,4.63-2.04,7.35-2.04,3.83,0,6.98,1.19,9.43,3.57,2.45,2.38,3.68,5.51,3.68,9.39v24.32h-6.19v-23.15c0-2.52-.75-4.57-2.26-6.15-1.51-1.58-3.52-2.37-6.04-2.37-3.45,0-6.18,1.4-8.19,4.19-2.01,2.79-3.02,6.59-3.02,11.39v16.09h-6.19Z"/>
      <path class="cls-1" d="M130.93,95.33c0,3.89.99,6.79,2.95,8.71,1.97,1.91,4.6,2.87,7.9,2.87,2.23,0,4.15-.29,5.75-.87l-.43-5.68c-1.27.63-2.8.95-4.59.95-1.65,0-2.96-.49-3.93-1.46s-1.46-2.4-1.46-4.3v-20.46h9.83v-5.46h-9.83v-11.14h-6.19v36.84Z"/>
      <path class="cls-1" d="M151.59,106.33v-51.55h6.19v22.06c2.67-5.19,6.84-7.79,12.52-7.79,4.17,0,7.51,1.19,10.01,3.57,2.5,2.38,3.75,5.56,3.75,9.54v24.17h-6.19v-23.01c0-2.72-.79-4.84-2.37-6.37-1.58-1.53-3.77-2.29-6.59-2.29-3.4,0-6.1,1.43-8.12,4.3-2.02,2.86-3.02,6.75-3.02,11.65v15.73h-6.19Z"/>
      <path class="cls-1" d="M223.96,86.31c0,1.02-.05,1.97-.15,2.84h-28.98c.19,3.69,1.37,6.66,3.53,8.92,2.16,2.26,4.89,3.39,8.19,3.39,2.81,0,5.14-.63,6.99-1.89,1.84-1.26,3.03-3.03,3.57-5.31l5.83,1.38c-.92,3.54-2.83,6.31-5.72,8.3-2.89,1.99-6.44,2.98-10.67,2.98-5.39,0-9.72-1.82-13-5.46s-4.91-8.13-4.91-13.47,1.61-9.89,4.84-13.51c3.23-3.62,7.54-5.42,12.92-5.42s9.54,1.66,12.74,4.99c3.2,3.33,4.8,7.42,4.8,12.27ZM195.2,83.98h22.21c-.29-2.91-1.41-5.27-3.35-7.06-1.94-1.79-4.49-2.69-7.65-2.69-2.86,0-5.29.86-7.28,2.58-1.99,1.72-3.3,4.11-3.93,7.17Z"/>
      <path class="cls-1" d="M228.14,106.33v-50.97h6.63v45h25.26v5.97h-31.89Z"/>
      <path class="cls-1" d="M293.06,101.56c-3.52,3.57-8,5.35-13.43,5.35s-9.9-1.78-13.4-5.35c-3.49-3.57-5.24-8.09-5.24-13.58s1.75-10.01,5.24-13.58c3.5-3.57,7.96-5.35,13.4-5.35s9.91,1.78,13.43,5.35c3.52,3.57,5.28,8.09,5.28,13.58s-1.76,10.01-5.28,13.58ZM270.75,97.63c2.28,2.5,5.24,3.75,8.88,3.75s6.6-1.25,8.88-3.75c2.28-2.5,3.42-5.72,3.42-9.65s-1.14-7.15-3.42-9.65c-2.28-2.5-5.24-3.75-8.88-3.75s-6.6,1.25-8.88,3.75c-2.28,2.5-3.42,5.72-3.42,9.65s1.14,7.15,3.42,9.65Z"/>
      <path class="cls-1" d="M334.35,101.56c-3.52,3.57-8,5.35-13.43,5.35s-9.9-1.78-13.4-5.35c-3.49-3.57-5.24-8.09-5.24-13.58s1.75-10.01,5.24-13.58c3.5-3.57,7.96-5.35,13.4-5.35s9.91,1.78,13.43,5.35c3.52,3.57,5.28,8.09,5.28,13.58s-1.76,10.01-5.28,13.58ZM312.03,97.63c2.28,2.5,5.24,3.75,8.88,3.75s6.6-1.25,8.88-3.75c2.28-2.5,3.42-5.72,3.42-9.65s-1.14-7.15-3.42-9.65c-2.28-2.5-5.24-3.75-8.88-3.75s-6.6,1.25-8.88,3.75c-2.28,2.5-3.42,5.72-3.42,9.65s1.14,7.15,3.42,9.65Z"/>
      <path class="cls-1" d="M344.21,119.58v-49.95h6.19v5.31c1.02-1.7,2.63-3.11,4.84-4.22,2.21-1.12,4.62-1.67,7.24-1.67,5.48,0,9.78,1.76,12.89,5.28s4.66,8.07,4.66,13.65-1.58,10.07-4.73,13.62c-3.16,3.54-7.48,5.31-12.96,5.31-2.33,0-4.59-.52-6.77-1.57-2.18-1.04-3.91-2.41-5.17-4.11v18.35h-6.19ZM361.76,101.38c3.64,0,6.55-1.22,8.74-3.68,2.18-2.45,3.28-5.69,3.28-9.72s-1.09-7.27-3.28-9.72c-2.18-2.45-5.1-3.68-8.74-3.68s-6.47,1.23-8.63,3.68c-2.16,2.45-3.24,5.69-3.24,9.72s1.08,7.27,3.24,9.72c2.16,2.45,5.04,3.68,8.63,3.68Z"/>
      <g>
        <path class="cls-1" d="M386.92,8.35V2.69h-2.05v-1.14h5.42v1.14h-2.05v5.66h-1.32Z"/>
        <path class="cls-1" d="M390.75,8.35V1.56h1.49l2.08,4.92,2.08-4.92h1.49v6.8h-1.24v-4.34l-1.83,4.34h-.99l-1.82-4.34v4.34h-1.24Z"/>
      </g>
    </g>
  </g>
</svg>